<svg width="219" height="40" viewBox="0 0 219 40" fill="none" xmlns="http://www.w3.org/2000/svg">
<g clip-path="url(#clip0_382_1743)">
<path d="M-2.28855e-06 17.5351C0.202621 16.6986 0.446809 15.6855 0.696192 14.6776C1.27809 12.3292 1.86518 9.98606 2.44707 7.6377C2.74841 6.42716 3.03935 5.21661 3.35108 4.01126C3.60566 3.0449 4.35381 2.53574 5.34095 2.75915C6.48396 3.01892 7.60098 3.36702 8.7284 3.69434C10.978 4.35416 13.2225 5.01918 15.4617 5.70499C16.2359 5.94398 16.8385 5.77253 17.4516 5.24259C19.322 3.62679 21.2235 2.04217 23.1407 0.483529C23.4628 0.223756 23.9408 0.0315228 24.3512 0.0263273C27.4945 -0.0100411 30.6429 -0.0152366 33.7862 0.0263273C34.2382 0.0315228 34.7422 0.228951 35.1266 0.483529C37.8439 2.30195 40.5455 4.15673 43.2368 6.01672C43.6784 6.32325 44.1304 6.37001 44.6136 6.22973C46.9671 5.53873 49.3207 4.83215 51.6794 4.15154C52.1574 4.01646 52.6562 3.90735 53.1498 3.90215C53.82 3.90215 54.272 4.3074 54.4538 4.93606C55.2903 7.86631 56.106 10.8069 56.9217 13.7476C57.3945 15.4465 57.8569 17.1558 58.3348 18.8547C58.5842 19.738 58.3349 20.351 57.4724 20.6732C56.3398 21.094 55.1864 21.4577 54.0382 21.837C53.3316 22.0707 52.6146 22.2734 51.9132 22.5228C51.534 22.6578 51.2482 22.5955 50.9521 22.3201C49.3155 20.803 47.6633 19.3068 46.0164 17.7949C44.4006 16.309 42.8679 14.7243 41.1586 13.3527C39.6103 12.1162 37.8854 11.0979 36.2229 10.0068C34.5603 8.91579 32.8718 7.85591 31.2092 6.77006C30.6949 6.43755 30.1857 6.21934 29.5467 6.25051C28.6375 6.29727 27.7231 6.22453 26.8139 6.28168C26.4398 6.30766 25.9982 6.44794 25.728 6.69213C23.4524 8.74954 21.2131 10.8485 18.9583 12.9319C15.9657 15.6907 12.9627 18.4443 9.97012 21.2083C9.47136 21.6655 8.9674 21.7902 8.29198 21.5668C5.87609 20.7563 3.43941 20.0133 1.02351 19.2132C0.301336 18.9742 -0.0155887 18.4495 -2.28855e-06 17.5351Z" fill="#5152F5"/>
<path d="M29.1414 37.2415C29.6454 36.7323 30.1234 36.2647 30.5806 35.7815C32.4302 33.8125 32.0249 30.8251 29.6714 29.5002C29.1466 29.2041 28.4764 29.1313 27.8633 29.0378C27.5308 28.9859 27.3438 28.9443 27.2711 28.5598C26.923 26.6115 24.8811 24.8918 23.2134 25.0217C22.8393 25.0529 22.777 24.8087 22.6835 24.5177C22.1847 22.9227 21.1975 21.7745 19.5298 21.3641C18.6206 21.1407 17.8309 21.4057 17.1347 22.0759C15.5708 23.5878 13.9706 25.0633 12.3808 26.5492C11.5495 27.3285 10.4845 27.3077 9.73631 26.6115C9.08688 26.0088 9.04012 24.497 9.78307 23.8423C11.9132 21.9564 13.981 20.0029 16.08 18.0805C19.5402 14.9217 23.0108 11.7732 26.4658 8.60919C26.8918 8.21952 27.3542 8.0221 27.9257 8.05327C28.0919 8.06366 28.2634 8.06886 28.4297 8.04288C29.3544 7.9026 30.113 8.26109 30.8663 8.75985C33.3134 10.3808 35.828 11.9083 38.2439 13.5865C39.5324 14.4801 40.6962 15.5711 41.8652 16.631C44.385 18.917 46.832 21.2914 49.3934 23.5254C50.8274 24.7775 50.5676 26.2582 49.3726 27.3389C48.4998 28.1234 47.5023 28.2117 46.6086 27.448C44.9461 26.0192 43.3251 24.5385 41.6885 23.0734C40.691 22.1798 39.709 21.2706 38.7011 20.3873C38.1608 19.9146 37.6101 19.8834 37.2672 20.2626C36.8827 20.6939 36.9554 21.1719 37.501 21.7226C37.5529 21.7745 37.6049 21.8265 37.662 21.8784C39.1739 23.2552 40.691 24.6268 42.2081 26.0037C43.2679 26.9648 44.3382 27.9156 45.3929 28.8871C46.3073 29.7288 46.3385 30.8303 45.5124 31.7499C44.572 32.7889 43.3199 32.9708 42.4055 32.1499C40.0883 30.0821 37.7919 27.9935 35.4851 25.9101C35.0435 25.5101 34.6175 25.0996 34.1655 24.71C33.6511 24.2684 33.1316 24.2684 32.7835 24.684C32.4354 25.0996 32.4977 25.614 32.9809 26.0608C35.3189 28.2169 37.6568 30.3731 40.0052 32.5136C40.9404 33.3656 41.0495 34.3995 40.2702 35.3711C39.4597 36.379 38.2283 36.5713 37.2672 35.7919C36.4203 35.1009 35.615 34.3476 34.7941 33.6254C34.711 33.5527 34.6331 33.4696 34.5447 33.402C34.0564 33.0383 33.5784 33.0487 33.2407 33.4228C32.9289 33.7657 32.9393 34.3528 33.3082 34.7476C33.6615 35.1269 34.046 35.4802 34.446 35.8127C35.667 36.8258 35.8072 37.7195 34.9084 38.8677C33.9161 40.1354 32.5289 40.3847 31.4067 39.4496C30.6793 38.8417 30.0195 38.1559 29.3337 37.5064C29.2661 37.4441 29.2246 37.361 29.1466 37.2571L29.1414 37.2415Z" fill="#5152F5"/>
<path d="M18.8856 35.5372C18.0283 35.5372 17.2282 34.919 16.8541 33.963C16.5684 33.2304 16.7243 32.607 17.3685 32.0043C18.9116 30.5496 20.4546 29.1 21.9977 27.6505C22.0392 27.6141 22.0756 27.5673 22.1172 27.5362C22.7043 27.0322 23.2913 26.5023 24.1486 26.9647C25.0734 27.4634 25.6917 28.2428 25.7436 29.287C25.7644 29.6715 25.4111 30.1547 25.0994 30.456C23.5459 31.9471 21.9613 33.4071 20.3507 34.841C19.9558 35.1943 19.4363 35.4073 18.9739 35.6827C18.9427 35.6359 18.9167 35.5892 18.8856 35.5372Z" fill="#5152F5"/>
<path d="M30.087 33.2092C29.8792 33.5833 29.7545 34.0457 29.4532 34.3211C27.8218 35.8381 26.1644 37.324 24.4863 38.7892C23.6291 39.5373 22.5224 39.3763 21.7275 38.4567C20.917 37.5163 20.9794 36.5291 21.8782 35.7186C23.4264 34.3314 24.9747 32.9443 26.5022 31.5363C27.1152 30.97 27.7335 30.492 28.6219 30.8505C29.3597 31.1518 29.9623 32.2065 30.0766 33.204L30.087 33.2092Z" fill="#5152F5"/>
<path d="M14.7707 31.7027C13.9031 31.6092 13.1445 31.0585 12.7913 30.2376C12.4432 29.4323 12.6146 28.7413 13.2381 28.1646C14.8175 26.6995 16.4333 25.2759 17.9815 23.7796C18.7297 23.0575 19.8103 23.1562 20.5429 24.0654C21.4677 25.2084 21.4313 25.9513 20.3611 26.9593C18.8596 28.3724 17.3529 29.7752 15.8202 31.152C15.5345 31.4066 15.124 31.5209 14.7707 31.7027Z" fill="#5152F5"/>
</g>
<path d="M75.0539 7.24005H85.8473V10.8857H79.1339V17.9947H84.4008V21.6404H79.1339V32.7596H75.0539V7.24005Z" fill="black"/>
<path d="M87.8039 7.24005H93.8497C95.9515 7.24005 97.4846 7.72614 98.4489 8.69832C99.4133 9.64618 99.8955 11.1166 99.8955 13.1096V14.6772C99.8955 17.3264 99.0053 19.0034 97.2249 19.7082V19.7811C98.214 20.0728 98.9064 20.6682 99.302 21.5675C99.7224 22.4667 99.9326 23.6698 99.9326 25.1767V29.6608C99.9326 30.39 99.9573 30.9854 100.007 31.4472C100.056 31.8847 100.18 32.3221 100.378 32.7596H96.2235C96.0751 32.3465 95.9762 31.9576 95.9268 31.593C95.8773 31.2285 95.8526 30.5722 95.8526 29.6244V24.9579C95.8526 23.7913 95.6548 22.9771 95.2591 22.5153C94.8882 22.0536 94.2329 21.8227 93.2933 21.8227H91.8839V32.7596H87.8039V7.24005ZM93.3675 18.177C94.1835 18.177 94.7893 17.9704 95.1849 17.5573C95.6053 17.1441 95.8155 16.4514 95.8155 15.4792V13.5106C95.8155 12.587 95.6424 11.9186 95.2962 11.5055C94.9748 11.0923 94.4555 10.8857 93.7384 10.8857H91.8839V18.177H93.3675Z" fill="black"/>
<path d="M102.763 7.24005H113.891V10.8857H106.843V17.6302H112.444V21.2758H106.843V29.114H113.891V32.7596H102.763V7.24005Z" fill="black"/>
<path d="M116.238 7.24005H127.365V10.8857H120.318V17.6302H125.918V21.2758H120.318V29.114H127.365V32.7596H116.238V7.24005Z" fill="black"/>
<path d="M129.712 7.24005H133.792V29.114H140.506V32.7596H129.712V7.24005Z" fill="black"/>
<path d="M145.76 7.24005H151.286L155.515 32.7596H151.435L150.693 27.6922V27.7651H146.056L145.315 32.7596H141.531L145.76 7.24005ZM150.211 24.3017L148.393 11.6878H148.319L146.539 24.3017H150.211Z" fill="black"/>
<path d="M162.689 33.1242C160.711 33.1242 159.215 32.5773 158.201 31.4836C157.188 30.3656 156.681 28.7737 156.681 26.7078V25.2496H160.538V26.9995C160.538 28.6522 161.243 29.4785 162.652 29.4785C163.345 29.4785 163.864 29.2841 164.21 28.8952C164.581 28.4821 164.766 27.8258 164.766 26.9266C164.766 25.8572 164.519 24.9215 164.025 24.1194C163.53 23.2931 162.615 22.3088 161.28 21.1664C159.598 19.7082 158.424 18.3958 157.756 17.2291C157.089 16.0382 156.755 14.7015 156.755 13.2189C156.755 11.2017 157.274 9.64619 158.313 8.55249C159.351 7.43449 160.86 6.87549 162.838 6.87549C164.791 6.87549 166.262 7.43449 167.252 8.55249C168.265 9.64619 168.772 11.226 168.772 13.2918V14.3491H164.915V13.0366C164.915 12.1617 164.742 11.5298 164.396 11.1409C164.049 10.7277 163.542 10.5211 162.875 10.5211C161.515 10.5211 160.835 11.3353 160.835 12.9637C160.835 13.8873 161.082 14.7501 161.577 15.5521C162.096 16.3542 163.023 17.3264 164.358 18.4687C166.065 19.9269 167.239 21.2515 167.882 22.4424C168.525 23.6333 168.846 25.0308 168.846 26.6349C168.846 28.7251 168.315 30.3292 167.252 31.4472C166.213 32.5652 164.692 33.1242 162.689 33.1242Z" fill="black"/>
<path d="M180.279 7.24005H185.805L190.034 32.7596H185.954L185.212 27.6922V27.7651H180.576L179.834 32.7596H176.05L180.279 7.24005ZM184.73 24.3017L182.912 11.6878H182.838L181.058 24.3017H184.73Z" fill="black"/>
<path d="M192.013 7.24005H198.022C200.049 7.24005 201.57 7.77475 202.584 8.84414C203.598 9.91353 204.105 11.4812 204.105 13.547V16.0625C204.105 18.1284 203.598 19.696 202.584 20.7654C201.57 21.8348 200.049 22.3695 198.022 22.3695H196.093V32.7596H192.013V7.24005ZM198.022 18.7239C198.689 18.7239 199.184 18.5416 199.505 18.177C199.852 17.8124 200.025 17.1927 200.025 16.3177V13.2918C200.025 12.4169 199.852 11.7971 199.505 11.4326C199.184 11.068 198.689 10.8857 198.022 10.8857H196.093V18.7239H198.022Z" fill="black"/>
<path d="M206.321 7.24005H212.329C214.357 7.24005 215.878 7.77475 216.891 8.84414C217.905 9.91353 218.412 11.4812 218.412 13.547V16.0625C218.412 18.1284 217.905 19.696 216.891 20.7654C215.878 21.8348 214.357 22.3695 212.329 22.3695H210.401V32.7596H206.321V7.24005ZM212.329 18.7239C212.997 18.7239 213.491 18.5416 213.813 18.177C214.159 17.8124 214.332 17.1927 214.332 16.3177V13.2918C214.332 12.4169 214.159 11.7971 213.813 11.4326C213.491 11.068 212.997 10.8857 212.329 10.8857H210.401V18.7239H212.329Z" fill="black"/>
<defs>
<clipPath id="clip0_382_1743">
<rect width="58.4284" height="40" fill="white"/>
</clipPath>
</defs>
</svg>
