<svg width="29" height="20" viewBox="0 0 29 20" fill="none" xmlns="http://www.w3.org/2000/svg">
<g clip-path="url(#clip0_298_1196)">
<path d="M0.499957 8.82861C0.597058 8.43128 0.714078 7.95005 0.833587 7.47129C1.11244 6.35582 1.39379 5.24282 1.67264 4.12735C1.81705 3.55234 1.95647 2.97733 2.10586 2.40479C2.22786 1.94577 2.58639 1.70392 3.05944 1.81003C3.6072 1.93343 4.1425 2.09877 4.68278 2.25425C5.76085 2.56767 6.83643 2.88355 7.90952 3.20931C8.2805 3.32283 8.56931 3.24139 8.86311 2.98967C9.75943 2.22217 10.6707 1.46947 11.5894 0.729115C11.7438 0.605722 11.9728 0.514412 12.1695 0.511944C13.6758 0.494669 15.1846 0.492201 16.691 0.511944C16.9076 0.514412 17.1491 0.60819 17.3333 0.729115C18.6355 1.59286 19.9302 2.47389 21.2199 3.35738C21.4315 3.50298 21.6481 3.52519 21.8796 3.45856C23.0075 3.13034 24.1354 2.79471 25.2657 2.47142C25.4948 2.40726 25.7338 2.35543 25.9703 2.35296C26.2915 2.35296 26.5081 2.54545 26.5953 2.84407C26.9961 4.23593 27.387 5.63274 27.7779 7.02954C28.0045 7.83653 28.2261 8.64846 28.4551 9.45544C28.5747 9.87498 28.4551 10.1662 28.0418 10.3192C27.4991 10.5191 26.9463 10.6918 26.3961 10.872C26.0575 10.983 25.7139 11.0793 25.3778 11.1977C25.196 11.2619 25.0591 11.2323 24.9172 11.1015C24.1329 10.3809 23.3411 9.67015 22.5519 8.952C21.7776 8.2462 21.0431 7.4935 20.2239 6.84199C19.482 6.25464 18.6554 5.77094 17.8587 5.25269C17.0619 4.73444 16.2528 4.231 15.456 3.71522C15.2095 3.55727 14.9655 3.45362 14.6593 3.46843C14.2236 3.49064 13.7854 3.45609 13.3497 3.48324C13.1704 3.49558 12.9588 3.56221 12.8293 3.6782C11.7388 4.65547 10.6657 5.65248 9.58514 6.64209C8.15103 7.95252 6.71194 9.26048 5.27783 10.5734C5.03882 10.7906 4.79731 10.8498 4.47364 10.7437C3.31589 10.3587 2.14819 10.0058 0.990442 9.62573C0.644364 9.5122 0.492488 9.26295 0.499957 8.82861Z" fill="white"/>
<path d="M14.4651 18.1896C14.7067 17.9477 14.9357 17.7256 15.1548 17.4961C16.0412 16.5608 15.847 15.1418 14.7191 14.5125C14.4676 14.3718 14.1465 14.3372 13.8527 14.2928C13.6933 14.2681 13.6037 14.2484 13.5688 14.0658C13.402 13.1403 12.4235 12.3235 11.6243 12.3852C11.445 12.4 11.4152 12.284 11.3704 12.1458C11.1313 11.3882 10.6583 10.8428 9.85906 10.6478C9.42335 10.5417 9.04491 10.6676 8.71128 10.9859C7.96185 11.704 7.195 12.4049 6.43313 13.1107C6.03477 13.4809 5.52436 13.471 5.16584 13.1403C4.85462 12.8541 4.83221 12.1359 5.18825 11.825C6.20905 10.9291 7.19998 10.0012 8.20585 9.08812C9.86404 7.58767 11.5272 6.09215 13.1829 4.58923C13.3871 4.40414 13.6087 4.31036 13.8825 4.32517C13.9622 4.3301 14.0444 4.33257 14.124 4.32023C14.5672 4.2536 14.9307 4.42388 15.2917 4.6608C16.4644 5.43077 17.6695 6.15632 18.8272 6.95343C19.4447 7.3779 20.0024 7.89615 20.5626 8.39959C21.7701 9.48545 22.9428 10.6133 24.1703 11.6744C24.8575 12.2692 24.733 12.9725 24.1603 13.4858C23.742 13.8585 23.264 13.9004 22.8358 13.5377C22.039 12.859 21.2622 12.1557 20.4779 11.4597C19.9999 11.0353 19.5293 10.6034 19.0463 10.1839C18.7874 9.95928 18.5235 9.94447 18.3592 10.1246C18.1749 10.3295 18.2098 10.5565 18.4712 10.8181C18.4961 10.8428 18.521 10.8674 18.5484 10.8921C19.2729 11.5461 19.9999 12.1976 20.7269 12.8516C21.2348 13.3082 21.7477 13.7598 22.2532 14.2213C22.6914 14.621 22.7063 15.1442 22.3104 15.581C21.8598 16.0746 21.2597 16.161 20.8215 15.7711C19.7111 14.7889 18.6106 13.7968 17.5052 12.8072C17.2935 12.6172 17.0894 12.4222 16.8728 12.2371C16.6263 12.0273 16.3773 12.0273 16.2105 12.2248C16.0437 12.4222 16.0735 12.6665 16.3051 12.8787C17.4255 13.9029 18.5459 14.9271 19.6713 15.9438C20.1194 16.3485 20.1717 16.8397 19.7982 17.3011C19.4098 17.7799 18.8198 17.8712 18.3592 17.501C17.9533 17.1728 17.5674 16.815 17.174 16.4719C17.1342 16.4374 17.0968 16.3979 17.0545 16.3658C16.8205 16.1931 16.5914 16.198 16.4296 16.3757C16.2802 16.5386 16.2852 16.8174 16.4619 17.005C16.6312 17.1851 16.8155 17.353 17.0072 17.5109C17.5923 17.9921 17.6595 18.4166 17.2288 18.962C16.7532 19.5642 16.0885 19.6826 15.5507 19.2384C15.2021 18.9497 14.8859 18.6239 14.5573 18.3154C14.5249 18.2858 14.505 18.2463 14.4676 18.197L14.4651 18.1896Z" fill="white"/>
<path d="M9.55033 17.3799C9.13951 17.3799 8.75609 17.0863 8.57682 16.6322C8.43989 16.2842 8.51458 15.9881 8.82331 15.7018C9.56277 15.0108 10.3022 14.3223 11.0417 13.6337C11.0616 13.6165 11.079 13.5942 11.099 13.5794C11.3803 13.3401 11.6617 13.0883 12.0725 13.308C12.5156 13.5449 12.8119 13.9151 12.8368 14.4111C12.8468 14.5937 12.6775 14.8232 12.5281 14.9664C11.7837 15.6746 11.0243 16.3681 10.2524 17.0492C10.0632 17.2171 9.81424 17.3182 9.59265 17.449C9.57771 17.4268 9.56526 17.4046 9.55033 17.3799Z" fill="white"/>
<path d="M14.9183 16.275C14.8187 16.4527 14.7589 16.6723 14.6145 16.8031C13.8327 17.5237 13.0385 18.2295 12.2343 18.9254C11.8235 19.2808 11.2932 19.2043 10.9122 18.7675C10.5238 18.3208 10.5537 17.8519 10.9844 17.4669C11.7264 16.808 12.4683 16.1491 13.2003 15.4803C13.4941 15.2113 13.7904 14.9843 14.2162 15.1546C14.5697 15.2977 14.8585 15.7987 14.9133 16.2725L14.9183 16.275Z" fill="white"/>
<path d="M7.57843 15.5586C7.16263 15.5142 6.79913 15.2526 6.62982 14.8627C6.46301 14.4801 6.54517 14.1519 6.84394 13.878C7.60083 13.1821 8.37515 12.5059 9.11711 11.7951C9.47563 11.4521 9.99351 11.499 10.3446 11.9308C10.7877 12.4738 10.7703 12.8267 10.2574 13.3054C9.53788 13.9767 8.81584 14.643 8.08136 15.297C7.94442 15.4179 7.74773 15.4722 7.57843 15.5586Z" fill="white"/>
</g>
<defs>
<clipPath id="clip0_298_1196">
<rect width="28" height="19" fill="white" transform="translate(0.5 0.5)"/>
</clipPath>
</defs>
</svg>
